
<svg version="1.0" xmlns="http://www.w3.org/2000/svg"
 width="2.4rem" height="2.4rem" viewBox="0 0 123.000000 123.000000"
 preserveAspectRatio="xMidYMid meet">

<g transform="translate(0.000000,123.000000) scale(0.100000,-0.100000)"
fill="#cccccc" stroke="none">
<path d="M233 1220 c-95 -20 -174 -86 -209 -176 -17 -45 -19 -80 -19 -434 0
-383 0 -385 24 -437 29 -65 91 -124 157 -149 45 -17 79 -19 429 -19 350 0 384
2 429 19 66 25 128 84 157 149 24 52 24 54 24 437 0 355 -1 389 -19 434 -25
66 -84 128 -149 157 -51 24 -57 24 -417 26 -201 1 -384 -2 -407 -7z m550 -223
c80 -36 170 -125 210 -206 30 -63 32 -72 32 -181 0 -104 -3 -121 -27 -173 -61
-130 -261 -279 -282 -209 -3 9 -5 49 -4 89 1 44 -3 77 -11 86 -14 18 -8 22 41
31 108 19 171 166 118 271 -13 25 -20 59 -20 92 0 67 -13 74 -78 42 -42 -21
-54 -23 -101 -15 -33 6 -73 5 -107 -1 -30 -5 -57 -6 -60 -2 -2 4 -25 15 -50
25 -55 21 -64 13 -64 -59 0 -28 -7 -59 -17 -74 -24 -36 -23 -145 0 -190 21
-39 72 -79 112 -88 55 -12 55 -11 42 -44 -20 -54 -89 -47 -140 15 -19 23 -37
34 -55 34 l-26 0 26 -27 c14 -16 33 -42 42 -60 17 -34 66 -57 113 -51 27 3 28
1 28 -42 0 -39 -3 -45 -22 -48 -62 -9 -204 112 -256 217 -30 63 -32 72 -32
181 0 104 3 121 27 173 29 61 110 154 164 188 75 46 133 60 239 56 82 -3 110
-8 158 -30z"/>
</g>
</svg>
